<mxfile host="app.diagrams.net" agent="Mozilla/5.0 (Windows NT 10.0; Win64; x64) AppleWebKit/537.36 (KHTML, like Gecko) Chrome/130.0.0.0 Safari/537.36" version="24.8.6">
  <diagram name="Page-1" id="e7e014a7-5840-1c2e-5031-d8a46d1fe8dd">
    <mxGraphModel dx="1293" dy="515" grid="1" gridSize="10" guides="1" tooltips="1" connect="1" arrows="1" fold="1" page="1" pageScale="1" pageWidth="1169" pageHeight="826" background="none" math="0" shadow="0">
      <root>
        <mxCell id="0" />
        <mxCell id="1" parent="0" />
        <mxCell id="2" value="App" style="swimlane;whiteSpace=wrap;startSize=23;" parent="1" vertex="1">
          <mxGeometry x="164.5" y="128" width="280" height="692" as="geometry" />
        </mxCell>
        <mxCell id="JQckTlbepNhro0GmJ0DP-43" style="edgeStyle=orthogonalEdgeStyle;rounded=0;orthogonalLoop=1;jettySize=auto;html=1;exitX=1;exitY=0.5;exitDx=0;exitDy=0;" parent="2" source="JQckTlbepNhro0GmJ0DP-42" edge="1">
          <mxGeometry relative="1" as="geometry">
            <mxPoint x="355.5" y="82" as="targetPoint" />
          </mxGeometry>
        </mxCell>
        <mxCell id="JQckTlbepNhro0GmJ0DP-42" value="Clicks login with provider e.g Google" style="rounded=0;whiteSpace=wrap;html=1;" parent="2" vertex="1">
          <mxGeometry x="80.5" y="52" width="120" height="60" as="geometry" />
        </mxCell>
        <mxCell id="JQckTlbepNhro0GmJ0DP-77" style="edgeStyle=orthogonalEdgeStyle;rounded=0;orthogonalLoop=1;jettySize=auto;html=1;exitX=0;exitY=0.5;exitDx=0;exitDy=0;entryX=0.5;entryY=0;entryDx=0;entryDy=0;" parent="2" source="JQckTlbepNhro0GmJ0DP-70" target="JQckTlbepNhro0GmJ0DP-72" edge="1">
          <mxGeometry relative="1" as="geometry" />
        </mxCell>
        <mxCell id="JQckTlbepNhro0GmJ0DP-70" value="Handle request" style="rounded=0;whiteSpace=wrap;html=1;" parent="2" vertex="1">
          <mxGeometry x="80.5" y="462" width="120" height="60" as="geometry" />
        </mxCell>
        <mxCell id="JQckTlbepNhro0GmJ0DP-72" value="&lt;div style=&quot;font-size: 10px;&quot;&gt;status is&lt;/div&gt;&lt;div style=&quot;font-size: 10px;&quot;&gt;ok&lt;br style=&quot;font-size: 10px;&quot;&gt;&lt;/div&gt;" style="rhombus;whiteSpace=wrap;html=1;fontColor=#000000;fillColor=#ffffc0;strokeColor=#ff0000;fontSize=10;" parent="2" vertex="1">
          <mxGeometry x="15.5" y="562" width="80" height="40" as="geometry" />
        </mxCell>
        <mxCell id="JQckTlbepNhro0GmJ0DP-73" value="no" style="edgeStyle=orthogonalEdgeStyle;html=1;align=left;verticalAlign=bottom;endArrow=open;endSize=8;strokeColor=#ff0000;rounded=0;" parent="2" source="JQckTlbepNhro0GmJ0DP-72" edge="1">
          <mxGeometry x="-1" relative="1" as="geometry">
            <mxPoint x="135.5" y="582" as="targetPoint" />
          </mxGeometry>
        </mxCell>
        <mxCell id="JQckTlbepNhro0GmJ0DP-74" value="yes" style="edgeStyle=orthogonalEdgeStyle;html=1;align=left;verticalAlign=top;endArrow=open;endSize=8;strokeColor=#ff0000;rounded=0;" parent="2" source="JQckTlbepNhro0GmJ0DP-72" edge="1">
          <mxGeometry x="-1" relative="1" as="geometry">
            <mxPoint x="55.5" y="642" as="targetPoint" />
          </mxGeometry>
        </mxCell>
        <mxCell id="JQckTlbepNhro0GmJ0DP-86" style="edgeStyle=orthogonalEdgeStyle;rounded=0;orthogonalLoop=1;jettySize=auto;html=1;exitX=1;exitY=0.5;exitDx=0;exitDy=0;entryX=0;entryY=0.5;entryDx=0;entryDy=0;" parent="2" source="JQckTlbepNhro0GmJ0DP-78" target="JQckTlbepNhro0GmJ0DP-84" edge="1">
          <mxGeometry relative="1" as="geometry" />
        </mxCell>
        <mxCell id="JQckTlbepNhro0GmJ0DP-78" value="Redirect to profile" style="rounded=0;whiteSpace=wrap;html=1;" parent="2" vertex="1">
          <mxGeometry x="5.5" y="642" width="100" height="28" as="geometry" />
        </mxCell>
        <mxCell id="JQckTlbepNhro0GmJ0DP-85" style="edgeStyle=orthogonalEdgeStyle;rounded=0;orthogonalLoop=1;jettySize=auto;html=1;exitX=0.5;exitY=1;exitDx=0;exitDy=0;entryX=0.5;entryY=0;entryDx=0;entryDy=0;" parent="2" source="JQckTlbepNhro0GmJ0DP-82" target="JQckTlbepNhro0GmJ0DP-84" edge="1">
          <mxGeometry relative="1" as="geometry" />
        </mxCell>
        <mxCell id="JQckTlbepNhro0GmJ0DP-82" value="Redirect to login menu and display error" style="rounded=0;whiteSpace=wrap;html=1;" parent="2" vertex="1">
          <mxGeometry x="135.5" y="557" width="100" height="50" as="geometry" />
        </mxCell>
        <mxCell id="JQckTlbepNhro0GmJ0DP-84" value="" style="ellipse;html=1;shape=endState;fillColor=#000000;strokeColor=#ff0000;" parent="2" vertex="1">
          <mxGeometry x="170.5" y="642" width="30" height="30" as="geometry" />
        </mxCell>
        <mxCell id="JQckTlbepNhro0GmJ0DP-90" value="" style="ellipse;html=1;shape=startState;fillColor=#000000;strokeColor=#ff0000;align=center;verticalAlign=middle;fontFamily=Helvetica;fontSize=12;fontColor=default;" parent="2" vertex="1">
          <mxGeometry x="15.5" y="67" width="30" height="30" as="geometry" />
        </mxCell>
        <mxCell id="JQckTlbepNhro0GmJ0DP-91" value="" style="edgeStyle=orthogonalEdgeStyle;html=1;verticalAlign=bottom;endArrow=open;endSize=8;strokeColor=#ff0000;rounded=0;fontFamily=Helvetica;fontSize=12;fontColor=default;entryX=0;entryY=0.5;entryDx=0;entryDy=0;" parent="2" source="JQckTlbepNhro0GmJ0DP-90" target="JQckTlbepNhro0GmJ0DP-42" edge="1">
          <mxGeometry relative="1" as="geometry">
            <mxPoint x="30.5" y="202" as="targetPoint" />
          </mxGeometry>
        </mxCell>
        <mxCell id="3" value="API" style="swimlane;whiteSpace=wrap" parent="1" vertex="1">
          <mxGeometry x="445" y="128" width="280" height="692" as="geometry" />
        </mxCell>
        <mxCell id="JQckTlbepNhro0GmJ0DP-44" value="Redirect user to Google" style="rounded=0;whiteSpace=wrap;html=1;" parent="3" vertex="1">
          <mxGeometry x="75.5" y="52" width="120" height="60" as="geometry" />
        </mxCell>
        <mxCell id="JQckTlbepNhro0GmJ0DP-54" style="edgeStyle=orthogonalEdgeStyle;rounded=0;orthogonalLoop=1;jettySize=auto;html=1;exitX=0.5;exitY=1;exitDx=0;exitDy=0;entryX=0.5;entryY=0;entryDx=0;entryDy=0;" parent="3" source="JQckTlbepNhro0GmJ0DP-52" target="JQckTlbepNhro0GmJ0DP-55" edge="1">
          <mxGeometry relative="1" as="geometry">
            <mxPoint x="135.83333333333348" y="252" as="targetPoint" />
          </mxGeometry>
        </mxCell>
        <mxCell id="JQckTlbepNhro0GmJ0DP-52" value="API receives users data" style="rounded=0;whiteSpace=wrap;html=1;" parent="3" vertex="1">
          <mxGeometry x="75.5" y="152" width="120" height="60" as="geometry" />
        </mxCell>
        <mxCell id="JQckTlbepNhro0GmJ0DP-64" style="edgeStyle=orthogonalEdgeStyle;rounded=0;orthogonalLoop=1;jettySize=auto;html=1;exitX=0.5;exitY=1;exitDx=0;exitDy=0;entryX=0.5;entryY=0;entryDx=0;entryDy=0;" parent="3" source="JQckTlbepNhro0GmJ0DP-55" target="JQckTlbepNhro0GmJ0DP-61" edge="1">
          <mxGeometry relative="1" as="geometry" />
        </mxCell>
        <mxCell id="JQckTlbepNhro0GmJ0DP-55" value="Set user in context" style="rounded=0;whiteSpace=wrap;html=1;" parent="3" vertex="1">
          <mxGeometry x="75.5" y="255" width="120" height="60" as="geometry" />
        </mxCell>
        <mxCell id="JQckTlbepNhro0GmJ0DP-61" value="&lt;div style=&quot;font-size: 10px;&quot;&gt;User in&amp;nbsp;&lt;/div&gt;&lt;div style=&quot;font-size: 10px;&quot;&gt;db?&lt;/div&gt;" style="rhombus;whiteSpace=wrap;html=1;fontColor=#000000;fillColor=#ffffc0;strokeColor=#ff0000;fontSize=10;" parent="3" vertex="1">
          <mxGeometry x="95" y="362" width="80" height="40" as="geometry" />
        </mxCell>
        <mxCell id="JQckTlbepNhro0GmJ0DP-63" value="yes" style="edgeStyle=orthogonalEdgeStyle;html=1;align=left;verticalAlign=top;endArrow=open;endSize=8;strokeColor=#ff0000;rounded=0;" parent="3" source="JQckTlbepNhro0GmJ0DP-61" edge="1">
          <mxGeometry x="-1" relative="1" as="geometry">
            <mxPoint x="135" y="462" as="targetPoint" />
          </mxGeometry>
        </mxCell>
        <mxCell id="JQckTlbepNhro0GmJ0DP-66" value="&lt;div&gt;Generate JWT&lt;/div&gt;&lt;div&gt;access/refresh token&lt;br&gt;&lt;/div&gt;" style="rounded=0;whiteSpace=wrap;html=1;" parent="3" vertex="1">
          <mxGeometry x="75" y="462" width="120" height="60" as="geometry" />
        </mxCell>
        <mxCell id="4" value="DB" style="swimlane;whiteSpace=wrap" parent="1" vertex="1">
          <mxGeometry x="724.5" y="128" width="280" height="692" as="geometry" />
        </mxCell>
        <mxCell id="JQckTlbepNhro0GmJ0DP-65" value="Save user into db" style="rounded=0;whiteSpace=wrap;html=1;" parent="4" vertex="1">
          <mxGeometry x="80" y="352" width="120" height="60" as="geometry" />
        </mxCell>
        <mxCell id="JQckTlbepNhro0GmJ0DP-41" value="Provider" style="swimlane;whiteSpace=wrap" parent="1" vertex="1">
          <mxGeometry x="1004.5" y="128" width="280" height="692" as="geometry" />
        </mxCell>
        <mxCell id="JQckTlbepNhro0GmJ0DP-49" style="edgeStyle=orthogonalEdgeStyle;rounded=0;orthogonalLoop=1;jettySize=auto;html=1;exitX=0.5;exitY=1;exitDx=0;exitDy=0;" parent="JQckTlbepNhro0GmJ0DP-41" source="JQckTlbepNhro0GmJ0DP-46" edge="1">
          <mxGeometry relative="1" as="geometry">
            <mxPoint x="139.9000000000001" y="152" as="targetPoint" />
          </mxGeometry>
        </mxCell>
        <mxCell id="JQckTlbepNhro0GmJ0DP-46" value="User chooses account and finishes log in" style="rounded=0;whiteSpace=wrap;html=1;" parent="JQckTlbepNhro0GmJ0DP-41" vertex="1">
          <mxGeometry x="80" y="52" width="120" height="60" as="geometry" />
        </mxCell>
        <mxCell id="JQckTlbepNhro0GmJ0DP-50" value="Google makes request to appropriate endpoint (callback)" style="rounded=0;whiteSpace=wrap;html=1;" parent="JQckTlbepNhro0GmJ0DP-41" vertex="1">
          <mxGeometry x="80" y="152" width="120" height="60" as="geometry" />
        </mxCell>
        <mxCell id="JQckTlbepNhro0GmJ0DP-47" style="edgeStyle=orthogonalEdgeStyle;rounded=0;orthogonalLoop=1;jettySize=auto;html=1;exitX=1;exitY=0.5;exitDx=0;exitDy=0;entryX=0;entryY=0.5;entryDx=0;entryDy=0;" parent="1" source="JQckTlbepNhro0GmJ0DP-44" target="JQckTlbepNhro0GmJ0DP-46" edge="1">
          <mxGeometry relative="1" as="geometry" />
        </mxCell>
        <mxCell id="JQckTlbepNhro0GmJ0DP-53" style="edgeStyle=orthogonalEdgeStyle;rounded=0;orthogonalLoop=1;jettySize=auto;html=1;exitX=0;exitY=0.5;exitDx=0;exitDy=0;entryX=1;entryY=0.5;entryDx=0;entryDy=0;" parent="1" source="JQckTlbepNhro0GmJ0DP-50" target="JQckTlbepNhro0GmJ0DP-52" edge="1">
          <mxGeometry relative="1" as="geometry" />
        </mxCell>
        <mxCell id="JQckTlbepNhro0GmJ0DP-62" value="no" style="edgeStyle=orthogonalEdgeStyle;html=1;align=left;verticalAlign=bottom;endArrow=open;endSize=8;strokeColor=#ff0000;rounded=0;entryX=0;entryY=0.5;entryDx=0;entryDy=0;" parent="1" source="JQckTlbepNhro0GmJ0DP-61" target="JQckTlbepNhro0GmJ0DP-65" edge="1">
          <mxGeometry x="-1" relative="1" as="geometry">
            <mxPoint x="770" y="510" as="targetPoint" />
          </mxGeometry>
        </mxCell>
        <mxCell id="JQckTlbepNhro0GmJ0DP-69" style="edgeStyle=orthogonalEdgeStyle;rounded=0;orthogonalLoop=1;jettySize=auto;html=1;exitX=0.5;exitY=1;exitDx=0;exitDy=0;entryX=1;entryY=0.5;entryDx=0;entryDy=0;" parent="1" source="JQckTlbepNhro0GmJ0DP-65" target="JQckTlbepNhro0GmJ0DP-66" edge="1">
          <mxGeometry relative="1" as="geometry">
            <mxPoint x="864.6190476190475" y="620" as="targetPoint" />
          </mxGeometry>
        </mxCell>
        <mxCell id="JQckTlbepNhro0GmJ0DP-71" style="edgeStyle=orthogonalEdgeStyle;rounded=0;orthogonalLoop=1;jettySize=auto;html=1;exitX=0;exitY=0.5;exitDx=0;exitDy=0;entryX=1;entryY=0.5;entryDx=0;entryDy=0;" parent="1" source="JQckTlbepNhro0GmJ0DP-66" target="JQckTlbepNhro0GmJ0DP-70" edge="1">
          <mxGeometry relative="1" as="geometry" />
        </mxCell>
        <mxCell id="QZVVrFzf9iPezrL3bg4P-39" value="User" style="swimlane;whiteSpace=wrap;startSize=23;" vertex="1" parent="1">
          <mxGeometry x="164.5" y="920" width="280" height="692" as="geometry" />
        </mxCell>
        <mxCell id="QZVVrFzf9iPezrL3bg4P-40" style="edgeStyle=orthogonalEdgeStyle;rounded=0;orthogonalLoop=1;jettySize=auto;html=1;exitX=1;exitY=0.5;exitDx=0;exitDy=0;" edge="1" parent="QZVVrFzf9iPezrL3bg4P-39" source="QZVVrFzf9iPezrL3bg4P-41">
          <mxGeometry relative="1" as="geometry">
            <mxPoint x="355.5" y="82" as="targetPoint" />
          </mxGeometry>
        </mxCell>
        <mxCell id="QZVVrFzf9iPezrL3bg4P-41" value="Wants to log into the application" style="rounded=0;whiteSpace=wrap;html=1;" vertex="1" parent="QZVVrFzf9iPezrL3bg4P-39">
          <mxGeometry x="80.5" y="52" width="120" height="60" as="geometry" />
        </mxCell>
        <mxCell id="QZVVrFzf9iPezrL3bg4P-51" value="" style="ellipse;html=1;shape=endState;fillColor=#000000;strokeColor=#ff0000;" vertex="1" parent="QZVVrFzf9iPezrL3bg4P-39">
          <mxGeometry x="105.5" y="530" width="30" height="30" as="geometry" />
        </mxCell>
        <mxCell id="QZVVrFzf9iPezrL3bg4P-52" value="" style="ellipse;html=1;shape=startState;fillColor=#000000;strokeColor=#ff0000;align=center;verticalAlign=middle;fontFamily=Helvetica;fontSize=12;fontColor=default;" vertex="1" parent="QZVVrFzf9iPezrL3bg4P-39">
          <mxGeometry x="15.5" y="67" width="30" height="30" as="geometry" />
        </mxCell>
        <mxCell id="QZVVrFzf9iPezrL3bg4P-53" value="" style="edgeStyle=orthogonalEdgeStyle;html=1;verticalAlign=bottom;endArrow=open;endSize=8;strokeColor=#ff0000;rounded=0;fontFamily=Helvetica;fontSize=12;fontColor=default;entryX=0;entryY=0.5;entryDx=0;entryDy=0;" edge="1" parent="QZVVrFzf9iPezrL3bg4P-39" source="QZVVrFzf9iPezrL3bg4P-52" target="QZVVrFzf9iPezrL3bg4P-41">
          <mxGeometry relative="1" as="geometry">
            <mxPoint x="30.5" y="202" as="targetPoint" />
          </mxGeometry>
        </mxCell>
        <mxCell id="QZVVrFzf9iPezrL3bg4P-64" value="User selects the provider" style="rounded=0;whiteSpace=wrap;html=1;" vertex="1" parent="QZVVrFzf9iPezrL3bg4P-39">
          <mxGeometry x="80.5" y="220" width="120" height="60" as="geometry" />
        </mxCell>
        <mxCell id="QZVVrFzf9iPezrL3bg4P-54" value="Warstwa prezentacji" style="swimlane;whiteSpace=wrap" vertex="1" parent="1">
          <mxGeometry x="445" y="920" width="280" height="692" as="geometry" />
        </mxCell>
        <mxCell id="QZVVrFzf9iPezrL3bg4P-55" value="Show options&amp;nbsp;&lt;div&gt;to log in&lt;/div&gt;" style="rounded=0;whiteSpace=wrap;html=1;" vertex="1" parent="QZVVrFzf9iPezrL3bg4P-54">
          <mxGeometry x="75.5" y="52" width="120" height="60" as="geometry" />
        </mxCell>
        <mxCell id="QZVVrFzf9iPezrL3bg4P-98" style="edgeStyle=orthogonalEdgeStyle;rounded=0;orthogonalLoop=1;jettySize=auto;html=1;entryX=0.5;entryY=1;entryDx=0;entryDy=0;" edge="1" parent="QZVVrFzf9iPezrL3bg4P-54" source="QZVVrFzf9iPezrL3bg4P-50" target="QZVVrFzf9iPezrL3bg4P-55">
          <mxGeometry relative="1" as="geometry" />
        </mxCell>
        <mxCell id="QZVVrFzf9iPezrL3bg4P-50" value="Redirect to login menu and display error" style="rounded=0;whiteSpace=wrap;html=1;" vertex="1" parent="QZVVrFzf9iPezrL3bg4P-54">
          <mxGeometry x="89.5" y="500" width="100" height="50" as="geometry" />
        </mxCell>
        <mxCell id="QZVVrFzf9iPezrL3bg4P-48" value="Redirect to profile" style="rounded=0;whiteSpace=wrap;html=1;" vertex="1" parent="QZVVrFzf9iPezrL3bg4P-54">
          <mxGeometry x="90" y="630" width="100" height="28" as="geometry" />
        </mxCell>
        <mxCell id="QZVVrFzf9iPezrL3bg4P-63" value="Warstwa logiki" style="swimlane;whiteSpace=wrap" vertex="1" parent="1">
          <mxGeometry x="724.5" y="920" width="575.5" height="692" as="geometry" />
        </mxCell>
        <mxCell id="QZVVrFzf9iPezrL3bg4P-82" value="" style="edgeStyle=orthogonalEdgeStyle;rounded=0;orthogonalLoop=1;jettySize=auto;html=1;" edge="1" parent="QZVVrFzf9iPezrL3bg4P-63" source="QZVVrFzf9iPezrL3bg4P-57" target="QZVVrFzf9iPezrL3bg4P-79">
          <mxGeometry relative="1" as="geometry" />
        </mxCell>
        <mxCell id="QZVVrFzf9iPezrL3bg4P-57" value="API request sent to provider" style="rounded=0;whiteSpace=wrap;html=1;" vertex="1" parent="QZVVrFzf9iPezrL3bg4P-63">
          <mxGeometry x="25.5" y="200" width="120" height="60" as="geometry" />
        </mxCell>
        <mxCell id="QZVVrFzf9iPezrL3bg4P-85" value="yes" style="edgeStyle=orthogonalEdgeStyle;rounded=0;orthogonalLoop=1;jettySize=auto;html=1;" edge="1" parent="QZVVrFzf9iPezrL3bg4P-63" source="QZVVrFzf9iPezrL3bg4P-79" target="QZVVrFzf9iPezrL3bg4P-60">
          <mxGeometry relative="1" as="geometry" />
        </mxCell>
        <mxCell id="QZVVrFzf9iPezrL3bg4P-79" value="&lt;div style=&quot;font-size: 10px;&quot;&gt;Request&amp;nbsp;&lt;/div&gt;&lt;div style=&quot;font-size: 10px;&quot;&gt;processed correctly?&lt;/div&gt;" style="rhombus;whiteSpace=wrap;html=1;fontColor=#000000;fillColor=#ffffc0;strokeColor=#ff0000;fontSize=10;" vertex="1" parent="QZVVrFzf9iPezrL3bg4P-63">
          <mxGeometry x="275.5" y="190" width="80" height="71" as="geometry" />
        </mxCell>
        <mxCell id="QZVVrFzf9iPezrL3bg4P-87" value="no" style="edgeStyle=orthogonalEdgeStyle;rounded=0;orthogonalLoop=1;jettySize=auto;html=1;" edge="1" parent="QZVVrFzf9iPezrL3bg4P-63" source="QZVVrFzf9iPezrL3bg4P-60" target="QZVVrFzf9iPezrL3bg4P-86">
          <mxGeometry relative="1" as="geometry" />
        </mxCell>
        <mxCell id="QZVVrFzf9iPezrL3bg4P-60" value="&lt;div style=&quot;font-size: 10px;&quot;&gt;User in&amp;nbsp;&lt;/div&gt;&lt;div style=&quot;font-size: 10px;&quot;&gt;db?&lt;/div&gt;" style="rhombus;whiteSpace=wrap;html=1;fontColor=#000000;fillColor=#ffffc0;strokeColor=#ff0000;fontSize=10;" vertex="1" parent="QZVVrFzf9iPezrL3bg4P-63">
          <mxGeometry x="275.5" y="340" width="80" height="40" as="geometry" />
        </mxCell>
        <mxCell id="QZVVrFzf9iPezrL3bg4P-86" value="Save user into db" style="rounded=0;whiteSpace=wrap;html=1;" vertex="1" parent="QZVVrFzf9iPezrL3bg4P-63">
          <mxGeometry x="255.5" y="430" width="120" height="60" as="geometry" />
        </mxCell>
        <mxCell id="QZVVrFzf9iPezrL3bg4P-62" value="&lt;div&gt;Generate JWT&lt;/div&gt;&lt;div&gt;access/refresh token&lt;br&gt;&lt;/div&gt;" style="rounded=0;whiteSpace=wrap;html=1;" vertex="1" parent="QZVVrFzf9iPezrL3bg4P-63">
          <mxGeometry x="35.5" y="380" width="120" height="60" as="geometry" />
        </mxCell>
        <mxCell id="QZVVrFzf9iPezrL3bg4P-88" value="yes" style="edgeStyle=orthogonalEdgeStyle;rounded=0;orthogonalLoop=1;jettySize=auto;html=1;entryX=1;entryY=0.5;entryDx=0;entryDy=0;" edge="1" parent="QZVVrFzf9iPezrL3bg4P-63" source="QZVVrFzf9iPezrL3bg4P-60" target="QZVVrFzf9iPezrL3bg4P-62">
          <mxGeometry relative="1" as="geometry" />
        </mxCell>
        <mxCell id="QZVVrFzf9iPezrL3bg4P-89" style="edgeStyle=orthogonalEdgeStyle;rounded=0;orthogonalLoop=1;jettySize=auto;html=1;entryX=1;entryY=0.75;entryDx=0;entryDy=0;" edge="1" parent="QZVVrFzf9iPezrL3bg4P-63" source="QZVVrFzf9iPezrL3bg4P-86" target="QZVVrFzf9iPezrL3bg4P-62">
          <mxGeometry relative="1" as="geometry">
            <mxPoint x="-144.5" y="530" as="targetPoint" />
            <Array as="points">
              <mxPoint x="216" y="460" />
              <mxPoint x="216" y="425" />
            </Array>
          </mxGeometry>
        </mxCell>
        <mxCell id="QZVVrFzf9iPezrL3bg4P-43" value="Handle request" style="rounded=0;whiteSpace=wrap;html=1;" vertex="1" parent="QZVVrFzf9iPezrL3bg4P-63">
          <mxGeometry x="35.5" y="510" width="120" height="60" as="geometry" />
        </mxCell>
        <mxCell id="QZVVrFzf9iPezrL3bg4P-73" style="edgeStyle=orthogonalEdgeStyle;rounded=0;orthogonalLoop=1;jettySize=auto;html=1;exitX=0;exitY=0.5;exitDx=0;exitDy=0;entryX=1;entryY=0.5;entryDx=0;entryDy=0;" edge="1" parent="QZVVrFzf9iPezrL3bg4P-63" source="QZVVrFzf9iPezrL3bg4P-62" target="QZVVrFzf9iPezrL3bg4P-43">
          <mxGeometry relative="1" as="geometry" />
        </mxCell>
        <mxCell id="QZVVrFzf9iPezrL3bg4P-44" value="&lt;div style=&quot;font-size: 10px;&quot;&gt;status is&lt;/div&gt;&lt;div style=&quot;font-size: 10px;&quot;&gt;ok&lt;br style=&quot;font-size: 10px;&quot;&gt;&lt;/div&gt;" style="rhombus;whiteSpace=wrap;html=1;fontColor=#000000;fillColor=#ffffc0;strokeColor=#ff0000;fontSize=10;" vertex="1" parent="QZVVrFzf9iPezrL3bg4P-63">
          <mxGeometry x="55.5" y="610" width="80" height="40" as="geometry" />
        </mxCell>
        <mxCell id="QZVVrFzf9iPezrL3bg4P-42" style="edgeStyle=orthogonalEdgeStyle;rounded=0;orthogonalLoop=1;jettySize=auto;html=1;exitX=0;exitY=0.5;exitDx=0;exitDy=0;entryX=0.5;entryY=0;entryDx=0;entryDy=0;" edge="1" parent="QZVVrFzf9iPezrL3bg4P-63" source="QZVVrFzf9iPezrL3bg4P-43" target="QZVVrFzf9iPezrL3bg4P-44">
          <mxGeometry relative="1" as="geometry" />
        </mxCell>
        <mxCell id="QZVVrFzf9iPezrL3bg4P-77" style="edgeStyle=orthogonalEdgeStyle;rounded=0;orthogonalLoop=1;jettySize=auto;html=1;entryX=0;entryY=0.5;entryDx=0;entryDy=0;" edge="1" parent="1" source="QZVVrFzf9iPezrL3bg4P-64" target="QZVVrFzf9iPezrL3bg4P-57">
          <mxGeometry relative="1" as="geometry">
            <mxPoint x="800" y="1150" as="targetPoint" />
          </mxGeometry>
        </mxCell>
        <mxCell id="QZVVrFzf9iPezrL3bg4P-91" value="yes" style="edgeStyle=orthogonalEdgeStyle;rounded=0;orthogonalLoop=1;jettySize=auto;html=1;entryX=0.75;entryY=1;entryDx=0;entryDy=0;" edge="1" parent="1" source="QZVVrFzf9iPezrL3bg4P-44" target="QZVVrFzf9iPezrL3bg4P-48">
          <mxGeometry relative="1" as="geometry" />
        </mxCell>
        <mxCell id="QZVVrFzf9iPezrL3bg4P-92" value="no" style="edgeStyle=orthogonalEdgeStyle;rounded=0;orthogonalLoop=1;jettySize=auto;html=1;entryX=1;entryY=0.5;entryDx=0;entryDy=0;" edge="1" parent="1" source="QZVVrFzf9iPezrL3bg4P-44" target="QZVVrFzf9iPezrL3bg4P-50">
          <mxGeometry relative="1" as="geometry" />
        </mxCell>
        <mxCell id="QZVVrFzf9iPezrL3bg4P-94" style="edgeStyle=orthogonalEdgeStyle;rounded=0;orthogonalLoop=1;jettySize=auto;html=1;entryX=0.5;entryY=1;entryDx=0;entryDy=0;" edge="1" parent="1" source="QZVVrFzf9iPezrL3bg4P-48" target="QZVVrFzf9iPezrL3bg4P-51">
          <mxGeometry relative="1" as="geometry" />
        </mxCell>
        <mxCell id="QZVVrFzf9iPezrL3bg4P-95" value="no" style="edgeStyle=orthogonalEdgeStyle;rounded=0;orthogonalLoop=1;jettySize=auto;html=1;exitX=0;exitY=1;exitDx=0;exitDy=0;" edge="1" parent="1" source="QZVVrFzf9iPezrL3bg4P-79">
          <mxGeometry relative="1" as="geometry">
            <mxPoint x="610" y="1420" as="targetPoint" />
            <Array as="points">
              <mxPoint x="911" y="1163" />
              <mxPoint x="911" y="1260" />
              <mxPoint x="610" y="1260" />
              <mxPoint x="610" y="1420" />
            </Array>
          </mxGeometry>
        </mxCell>
        <mxCell id="QZVVrFzf9iPezrL3bg4P-76" style="edgeStyle=orthogonalEdgeStyle;rounded=0;orthogonalLoop=1;jettySize=auto;html=1;entryX=0.5;entryY=0;entryDx=0;entryDy=0;" edge="1" parent="1" source="QZVVrFzf9iPezrL3bg4P-55" target="QZVVrFzf9iPezrL3bg4P-64">
          <mxGeometry relative="1" as="geometry">
            <Array as="points">
              <mxPoint x="400" y="1030" />
              <mxPoint x="400" y="1110" />
              <mxPoint x="305" y="1110" />
            </Array>
          </mxGeometry>
        </mxCell>
      </root>
    </mxGraphModel>
  </diagram>
</mxfile>
